<svg width="194" height="400" viewBox="0 0 194 400" fill="none" xmlns="http://www.w3.org/2000/svg">
<rect width="194" height="400" rx="10" fill="#E0733A"/>
<path d="M33.5 340.5C30.0658 321.612 19.0899 312.859 9.76465 309.407C4.58526 307.49 0 311.977 0 317.5V389C0 394.523 4.47715 399 10 399H45.8968C56.0391 399 61.041 383.649 54.0681 376.284C44.3841 366.055 35.8861 353.624 33.5 340.5Z" fill="#FFE9DD" fill-opacity="0.68"/>
<path d="M160.5 58.5C163.934 77.3881 174.91 86.1409 184.235 89.5928C189.415 91.51 194 87.0228 194 81.5V10C194 4.47715 189.523 0 184 0H148.103C137.961 0 132.959 15.351 139.932 22.716C149.616 32.9448 158.114 45.3764 160.5 58.5Z" fill="#FFE9DD" fill-opacity="0.68"/>
</svg>
