<svg width="1310" height="903" viewBox="0 0 1310 903" fill="none" xmlns="http://www.w3.org/2000/svg">
<rect x="3" y="1" width="1306.5" height="900" rx="10" fill="#4A6160"/>
<path d="M1230.85 64.5C1201.05 35.2065 1087 46.1273 1047.18 13.4192C1041.43 8.69878 1045.74 1 1053.17 1H1300C1305.52 1 1310 5.47715 1310 11V166.261C1310 177.433 1293.57 180.546 1289.19 170.27C1271.52 128.844 1248.71 82.0516 1230.85 64.5Z" fill="#52A19D" fill-opacity="0.7"/>
<path d="M215.287 624.017C139.316 530.81 49.7211 535.153 8.89578 550.57C5.23682 551.952 3 555.53 3 559.441V891C3 896.523 7.47711 901 13 901H1299.5C1305.02 901 1309.5 896.523 1309.5 891V814.291C1309.5 805.293 1298.23 800.553 1291.38 806.396C1259.16 833.919 1204.07 870.067 1149.15 873.002C1064.94 877.501 913.162 830.004 793.656 624.017C674.15 418.03 533.97 735.51 503.715 757.009C473.461 778.508 315.128 746.51 215.287 624.017Z" fill="#52A19D" fill-opacity="0.3"/>
<path d="M483.419 843.5C442.924 790.244 84.8319 834.663 12.3484 842.585C7.21025 843.146 3.50098 847.456 3.50098 852.624V892.5C3.50098 898.023 7.97814 902.5 13.501 902.5H508.569C509.168 902.5 509.782 902.483 510.325 902.231C515.143 899.992 515.655 885.895 483.419 843.5Z" fill="#E0733A" fill-opacity="0.7"/>
<path d="M1292.47 72.5C1289.69 55.9029 1278.21 41.6348 1263.99 30.1235C1255.11 22.9343 1260.4 0 1271.83 0H1299.5C1305.02 0 1309.5 4.47715 1309.5 10V90.025C1309.5 101.115 1298.14 102.678 1295.98 91.7999C1294.8 85.8022 1293.61 79.3607 1292.47 72.5Z" fill="#E0733A" fill-opacity="0.8"/>
<path d="M3 140C38.0833 328.636 116.755 332.71 158.042 308.351C162.963 305.448 166.335 300.661 168.498 295.373C188.224 247.152 231.617 175.74 271.013 223C323.112 285.5 179.838 560.5 152.286 611.5C134.063 645.23 323.613 713.5 341.147 611.5M341.147 611.5C336.638 596 319.606 693 372.206 700.5M341.147 611.5C324.448 619.333 289.047 630.3 281.032 611.5" stroke="#E0733A" stroke-opacity="0.7" stroke-width="5"/>
</svg>
