<svg width="1307" height="1453" viewBox="0 0 1307 1453" fill="none" xmlns="http://www.w3.org/2000/svg">
<g clip-path="url(#clip0_98_52)">
<rect width="1307" height="1453" fill="#52A19D" fill-opacity="0.5"/>
<path d="M789.549 82.8885C807.716 119.777 727.915 162.929 694.163 194.001L717.678 128.378L731.806 108.889C731.541 104.461 733.927 95.2325 745.59 93.7469C760.168 91.8899 749.085 61.2705 758.353 42.4009C767.622 23.5313 771.382 46.0001 789.549 82.8885Z" fill="#D9D9D9"/>
<path d="M-11.2811 531.029C36.883 598.996 -14.0777 600.707 111.946 585.61C237.969 570.513 282.706 537.564 410.474 525.591C538.243 513.619 589.733 621.799 644.356 486.715C698.978 351.632 729.54 440.008 712.86 340.78C696.179 241.552 660.41 225.073 694.163 194.001M694.163 194.001C727.915 162.929 807.716 119.777 789.549 82.8885C771.382 46.0001 767.622 23.5313 758.353 42.4009C749.085 61.2705 760.168 91.8899 745.59 93.7469C733.927 95.2325 731.541 104.461 731.806 108.889L717.678 128.378L694.163 194.001Z" stroke="white" stroke-opacity="0.5" stroke-width="3"/>
<path d="M686.569 201.344C687.654 199.293 719.123 160.863 733.213 137.555C747.304 114.246 760.384 100.628 761.476 88.0589C762.35 78.0035 757.965 53.447 755.664 42.4256" stroke="black"/>
<path d="M490.282 85.8885C472.115 122.777 551.916 165.929 585.668 197.001L562.153 131.378L548.025 111.889C548.29 107.461 545.904 98.2325 534.241 96.7469C519.663 94.8899 530.746 64.2705 521.478 45.4009C512.209 26.5313 508.449 49.0001 490.282 85.8885Z" fill="#D9D9D9"/>
<path d="M1291.11 534.029C1242.95 601.996 1293.91 603.707 1167.89 588.61C1041.86 573.513 997.125 540.564 869.357 528.591C741.589 516.619 690.098 624.799 635.475 489.715C580.853 354.632 550.291 443.008 566.971 343.78C583.652 244.552 619.421 228.073 585.668 197.001M585.668 197.001C551.916 165.929 472.115 122.777 490.282 85.8885C508.449 49.0001 512.209 26.5313 521.478 45.4009C530.746 64.2705 519.663 94.8899 534.241 96.7469C545.904 98.2325 548.29 107.461 548.025 111.889L562.153 131.378L585.668 197.001Z" stroke="white" stroke-opacity="0.5" stroke-width="3"/>
<path d="M593.262 204.344C592.177 202.293 560.708 163.863 546.618 140.555C532.527 117.246 519.447 103.628 518.355 91.0589C517.481 81.0035 521.866 56.447 524.167 45.4256" stroke="black"/>
<path d="M-9 531L654.534 544.5L1307 531V1028V1453L-9 1028V531Z" fill="#4A6160"/>
<path d="M-10 0H1307V531L652.537 549L-10 531V0Z" fill="#52A19D" fill-opacity="0.5"/>
<path d="M108.788 387.249C92.8161 290.903 182.656 120.245 270 4.48118L264.011 0L-2.51336 4.48118L-10 521.684L21.5 588L108.788 521.684L216 533.965C189.88 521.268 121.565 464.325 108.788 387.249Z" fill="#52A19D" fill-opacity="0.7"/>
<path d="M306 128C386.273 128 452.481 128 505.215 128M656 128C637.124 128 587.617 128 505.215 128M505.215 443.139V450V128" stroke="#765544" stroke-width="5"/>
<path d="M283.353 113.768C280.633 113.768 278.105 113.336 275.769 112.472C273.465 111.608 271.465 110.392 269.769 108.824C268.073 107.224 266.745 105.352 265.785 103.208C264.857 101.064 264.393 98.728 264.393 96.2C264.393 93.64 264.857 91.304 265.785 89.192C266.745 87.048 268.073 85.192 269.769 83.624C271.465 82.024 273.465 80.792 275.769 79.928C278.105 79.064 280.633 78.632 283.353 78.632C286.105 78.632 288.633 79.064 290.937 79.928C293.241 80.792 295.241 82.024 296.937 83.624C298.633 85.192 299.945 87.048 300.873 89.192C301.833 91.304 302.313 93.64 302.313 96.2C302.313 98.728 301.833 101.064 300.873 103.208C299.945 105.352 298.633 107.224 296.937 108.824C295.241 110.392 293.241 111.608 290.937 112.472C288.633 113.336 286.105 113.768 283.353 113.768ZM283.353 104.6C284.409 104.6 285.385 104.408 286.281 104.024C287.209 103.64 288.009 103.096 288.681 102.392C289.385 101.656 289.929 100.776 290.313 99.752C290.697 98.696 290.889 97.512 290.889 96.2C290.889 94.888 290.697 93.72 290.313 92.696C289.929 91.64 289.385 90.76 288.681 90.056C288.009 89.32 287.209 88.76 286.281 88.376C285.385 87.992 284.409 87.8 283.353 87.8C282.297 87.8 281.305 87.992 280.377 88.376C279.481 88.76 278.681 89.32 277.977 90.056C277.305 90.76 276.777 91.64 276.393 92.696C276.009 93.72 275.817 94.888 275.817 96.2C275.817 97.512 276.009 98.696 276.393 99.752C276.777 100.776 277.305 101.656 277.977 102.392C278.681 103.096 279.481 103.64 280.377 104.024C281.305 104.408 282.297 104.6 283.353 104.6ZM337.677 113.768C334.989 113.768 332.493 113.352 330.189 112.52C327.917 111.656 325.933 110.44 324.237 108.872C322.573 107.304 321.277 105.448 320.349 103.304C319.421 101.16 318.957 98.792 318.957 96.2C318.957 93.608 319.421 91.24 320.349 89.096C321.277 86.952 322.573 85.096 324.237 83.528C325.933 81.96 327.917 80.76 330.189 79.928C332.493 79.064 334.989 78.632 337.677 78.632C340.973 78.632 343.885 79.208 346.413 80.36C348.973 81.512 351.085 83.176 352.749 85.352L345.597 91.736C344.605 90.488 343.501 89.528 342.285 88.856C341.101 88.152 339.757 87.8 338.253 87.8C337.069 87.8 335.997 87.992 335.037 88.376C334.077 88.76 333.245 89.32 332.541 90.056C331.869 90.792 331.341 91.688 330.957 92.744C330.573 93.768 330.381 94.92 330.381 96.2C330.381 97.48 330.573 98.648 330.957 99.704C331.341 100.728 331.869 101.608 332.541 102.344C333.245 103.08 334.077 103.64 335.037 104.024C335.997 104.408 337.069 104.6 338.253 104.6C339.757 104.6 341.101 104.264 342.285 103.592C343.501 102.888 344.605 101.912 345.597 100.664L352.749 107.048C351.085 109.192 348.973 110.856 346.413 112.04C343.885 113.192 340.973 113.768 337.677 113.768ZM352.871 113L367.559 79.4H378.695L393.383 113H381.671L370.823 84.776H375.239L364.391 113H352.871ZM361.607 107.144L364.487 98.984H379.943L382.823 107.144H361.607ZM396.484 113V79.4H407.62V96.872L419.188 79.4H429.844V113H418.708V95.576L407.188 113H396.484ZM413.14 77.48C409.332 77.48 406.628 76.776 405.028 75.368C403.46 73.928 402.676 71.88 402.676 69.224H410.212C410.212 70.28 410.42 71.064 410.836 71.576C411.284 72.056 412.052 72.296 413.14 72.296C414.26 72.296 415.044 72.056 415.492 71.576C415.94 71.064 416.164 70.28 416.164 69.224H423.7C423.7 71.88 422.884 73.928 421.252 75.368C419.652 76.776 416.948 77.48 413.14 77.48ZM443.444 113V85.736L445.892 88.184H433.604V79.4H464.42V88.184H452.132L454.58 85.736V113H443.444ZM478.524 91.88H493.5V100.04H478.524V91.88ZM479.292 104.456H496.092V113H468.156V79.4H495.468V87.944H479.292V104.456Z" fill="#765544"/>
<ellipse cx="47.9624" cy="50" rx="47.9624" ry="50" transform="matrix(0.879798 -0.475347 0.445718 0.895173 652.626 80.1016)" fill="#363230"/>
<ellipse cx="47.0219" cy="50" rx="47.0219" ry="50" transform="matrix(0.879798 -0.475347 0.445718 0.895173 657.866 77.2705)" fill="#8B6653"/>
<path fill-rule="evenodd" clip-rule="evenodd" d="M702.329 53.3981L746.783 142.678C745.82 143.298 744.828 143.885 743.808 144.436C720.96 156.781 692.46 146.749 680.152 122.029C667.844 97.3096 676.388 67.2633 699.236 54.9188C700.256 54.3675 701.288 53.8609 702.329 53.3981Z" fill="#765544"/>
<ellipse cx="19.5925" cy="25.1667" rx="19.5925" ry="25.1667" transform="matrix(0.879798 -0.475347 0.445718 0.895173 693.831 86.2388)" fill="#363230"/>
<ellipse cx="47.9624" cy="50" rx="47.9624" ry="50" transform="matrix(0.879798 -0.475347 0.445718 0.895173 507 73.5347)" fill="#363230"/>
<ellipse cx="47.0219" cy="50" rx="47.0219" ry="50" transform="matrix(0.879798 -0.475347 0.445718 0.895173 512.24 70.7036)" fill="#8B6653"/>
<path fill-rule="evenodd" clip-rule="evenodd" d="M556.703 46.8313L601.157 136.112C600.194 136.731 599.202 137.318 598.182 137.869C575.334 150.214 546.834 140.182 534.526 115.462C522.218 90.7428 530.762 60.6964 553.61 48.3519C554.63 47.8006 555.662 47.294 556.703 46.8313Z" fill="#765544"/>
<ellipse cx="19.5925" cy="25.1667" rx="19.5925" ry="25.1667" transform="matrix(0.879798 -0.475347 0.445718 0.895173 548.205 79.6719)" fill="#363230"/>
<path d="M707.014 80.8369C708.728 80.3105 731.947 112.302 749.737 135.012C755.472 142.333 749.469 155.328 740.17 155.156L549.245 151.617C541.432 151.473 536.796 142.823 541.003 136.237L541.539 135.397C542.158 134.428 542.94 133.573 543.849 132.869L598.592 90.5331C600.159 89.3213 602.043 88.6027 604.019 88.4671C639.417 86.0379 705.119 81.4186 707.014 80.8369Z" fill="#8B6653" stroke="#765544" stroke-width="5"/>
<path d="M589.984 107.31L678.595 102.588C679.937 102.517 681.273 102.713 682.536 103.174C696.223 108.171 720.406 117.196 720.95 118.203C721.277 118.808 721.611 123.801 721.879 129.286C722.175 135.346 716.957 140.184 710.924 139.545L589.477 126.667C580.488 125.714 577.561 114.076 585.029 108.984C586.497 107.984 588.21 107.405 589.984 107.31Z" fill="#363230" fill-opacity="0.5"/>
<rect x="380" y="144" width="573" height="318" rx="46" fill="#363230"/>
<path d="M281 135.5C262.5 107 302 126 309.5 126L426 129C415.167 133.833 392.1 144.4 386.5 148C379.5 152.5 355 161 335.5 162.5C316 164 299.5 164 281 135.5Z" fill="#8B6653" stroke="#8B6653" stroke-opacity="0.5" stroke-width="3"/>
<path d="M1125.28 552.287C943.554 548.284 1292.82 255.01 1307 244V562.297C1307 608.339 1240.89 773.327 1235.82 771.992C1240.89 752.14 1270.66 555.49 1125.28 552.287Z" fill="#E0733A" fill-opacity="0.5"/>
<path d="M1307 1265L418 1453H1307V1265Z" fill="#52A19D" fill-opacity="0.5"/>
<path d="M722.462 1129.83H550H538.895C534.407 1129.83 511.545 1132.58 508 1129.83C470 1100.33 555.5 1120.33 537 1097.83C518.5 1075.33 537.5 1065.83 566.5 1056.33C595.5 1046.83 605 1079.83 612.5 1037.83C620 995.832 655 1028.83 689.5 1037.83C724 1046.83 687 1097.83 709.5 1079.83C732 1061.83 698 1093.33 726.5 1097.83C747.109 1101.09 738.223 1117.11 729.309 1126.93C727.568 1128.85 725.053 1129.83 722.462 1129.83Z" fill="#D9D9D9"/>
<path d="M1223.46 1257.83H1051H1039.9C1035.41 1257.83 1012.55 1260.58 1009 1257.83C971 1228.33 1056.5 1248.33 1038 1225.83C1019.5 1203.33 1038.5 1193.83 1067.5 1184.33C1096.5 1174.83 1106 1207.83 1113.5 1165.83C1121 1123.83 1156 1156.83 1190.5 1165.83C1225 1174.83 1188 1225.83 1210.5 1207.83C1233 1189.83 1199 1221.33 1227.5 1225.83C1248.11 1229.09 1239.22 1245.11 1230.31 1254.93C1228.57 1256.85 1226.05 1257.83 1223.46 1257.83Z" fill="#D9D9D9" fill-opacity="0.5"/>
<path d="M216.462 1230.83H44.0004H32.8955C28.4074 1230.83 5.54518 1233.58 2 1230.83C-36.0005 1201.33 49.5004 1221.33 31.0004 1198.83C12.5004 1176.33 31.5004 1166.83 60.5004 1157.33C89.5004 1147.83 99.0004 1180.83 106.5 1138.83C114 1096.83 149 1129.83 183.5 1138.83C218 1147.83 181 1198.83 203.5 1180.83C226 1162.83 192 1194.33 220.5 1198.83C241.109 1202.09 232.223 1218.11 223.309 1227.93C221.568 1229.85 219.053 1230.83 216.462 1230.83Z" fill="#D9D9D9"/>
<path d="M-9 1029L1299 1453H-9V1029Z" fill="#52A19D" fill-opacity="0.5"/>
<path d="M258.454 1098.31L261.501 1094.94C262.315 1095.9 263.244 1096.75 264.287 1097.48C265.361 1098.2 266.447 1098.77 267.545 1099.2C268.673 1099.6 269.735 1099.84 270.728 1099.9C271.745 1099.96 272.611 1099.84 273.326 1099.52C274.064 1099.22 274.564 1098.68 274.827 1097.9C275.135 1097 274.988 1096.2 274.385 1095.51C273.789 1094.8 272.866 1094.24 271.616 1093.81L265.787 1091.83L267.199 1087.67L272.619 1089.51C273.733 1089.89 274.673 1089.96 275.441 1089.71C276.232 1089.47 276.762 1088.96 277.032 1088.16C277.264 1087.48 277.222 1086.86 276.906 1086.29C276.598 1085.71 276.081 1085.18 275.355 1084.7C274.652 1084.23 273.808 1083.85 272.823 1083.54C271.838 1083.23 270.773 1083.04 269.627 1082.98C268.482 1082.93 267.343 1082.99 266.211 1083.19L265.987 1078.37C267.803 1078.09 269.613 1078.1 271.417 1078.38C273.253 1078.65 274.939 1079.14 276.475 1079.84C278.043 1080.52 279.374 1081.38 280.468 1082.41C281.571 1083.42 282.35 1084.52 282.807 1085.71C283.263 1086.9 283.275 1088.14 282.843 1089.41C282.457 1090.55 281.818 1091.46 280.927 1092.14C280.035 1092.83 278.974 1093.23 277.744 1093.34C276.536 1093.47 275.251 1093.3 273.887 1092.83L274.44 1091.65C276.031 1092.19 277.313 1092.93 278.287 1093.87C279.291 1094.79 279.95 1095.84 280.262 1097.01C280.605 1098.17 280.568 1099.36 280.151 1100.59C279.765 1101.72 279.111 1102.64 278.189 1103.34C277.297 1104.03 276.224 1104.5 274.971 1104.76C273.717 1105.02 272.369 1105.07 270.928 1104.91C269.487 1104.75 268.013 1104.39 266.506 1103.82C265.021 1103.27 263.583 1102.54 262.192 1101.64C260.808 1100.71 259.562 1099.6 258.454 1098.31ZM298.905 1111.67L304.646 1094.76L296.464 1091.98L295.181 1095.43C294.612 1096.88 294.035 1098.24 293.451 1099.51C292.89 1100.79 292.299 1101.94 291.679 1102.94C291.066 1103.93 290.428 1104.72 289.764 1105.33C289.123 1105.95 288.453 1106.32 287.754 1106.44L282.112 1103.69C282.922 1103.99 283.689 1103.93 284.412 1103.52C285.158 1103.11 285.872 1102.43 286.553 1101.47C287.241 1100.48 287.9 1099.29 288.531 1097.88C289.184 1096.48 289.833 1094.94 290.48 1093.26L293.288 1085.89L311.628 1092.11L304.359 1113.52L298.905 1111.67ZM278.122 1112.86L281.362 1103.43L308.394 1112.61L305.188 1122.05L300.075 1120.32L301.753 1115.37L284.913 1109.66L283.235 1114.6L278.122 1112.86ZM320.501 1105.85L331.989 1109.75L330.531 1114.04L319.043 1110.14L320.501 1105.85ZM317.577 1115.8L330.564 1120.21L329.06 1124.64L310.584 1118.37L318.686 1094.51L336.719 1100.63L335.214 1105.06L322.669 1100.8L317.577 1115.8ZM344.665 1130.4C342.824 1129.77 341.209 1128.9 339.818 1127.77C338.459 1126.62 337.388 1125.29 336.607 1123.79C335.826 1122.28 335.361 1120.66 335.211 1118.94C335.084 1117.22 335.326 1115.47 335.935 1113.67C336.545 1111.88 337.422 1110.34 338.568 1109.05C339.736 1107.78 341.089 1106.78 342.626 1106.06C344.186 1105.35 345.85 1104.96 347.619 1104.9C349.395 1104.82 351.215 1105.1 353.079 1105.73C355.147 1106.43 356.887 1107.43 358.299 1108.72C359.741 1109.99 360.795 1111.52 361.461 1113.29L356.805 1115.36C356.303 1114.15 355.629 1113.15 354.784 1112.35C353.946 1111.54 352.936 1110.93 351.754 1110.53C350.641 1110.15 349.556 1109.98 348.501 1110.03C347.446 1110.08 346.462 1110.33 345.548 1110.78C344.635 1111.23 343.827 1111.85 343.124 1112.65C342.444 1113.46 341.911 1114.43 341.526 1115.57C341.14 1116.71 340.971 1117.8 341.018 1118.86C341.088 1119.92 341.348 1120.91 341.798 1121.82C342.249 1122.74 342.878 1123.53 343.686 1124.21C344.494 1124.89 345.455 1125.42 346.569 1125.8C347.751 1126.2 348.919 1126.34 350.073 1126.23C351.235 1126.09 352.387 1125.68 353.529 1125.01L355.963 1129.48C354.356 1130.48 352.588 1131.06 350.66 1131.22C348.754 1131.38 346.756 1131.11 344.665 1130.4ZM375.251 1122.46C378.137 1123.44 380.144 1124.84 381.272 1126.67C382.408 1128.48 382.54 1130.66 381.668 1133.23C380.742 1135.96 379.165 1137.73 376.937 1138.54C374.731 1139.37 372.095 1139.26 369.027 1138.21L358.255 1134.56L366.357 1110.7L371.845 1112.56L369.183 1120.4L375.251 1122.46ZM370.109 1134.02C371.518 1134.5 372.751 1134.52 373.808 1134.1C374.866 1133.67 375.622 1132.79 376.077 1131.45C376.525 1130.13 376.436 1129.05 375.811 1128.2C375.216 1127.34 374.203 1126.67 372.771 1126.18L367.794 1124.49L365.132 1132.33L370.109 1134.02ZM504.236 1181.39L509.977 1164.48L501.795 1161.7L500.512 1165.14C499.943 1166.6 499.366 1167.96 498.782 1169.23C498.221 1170.51 497.63 1171.65 497.01 1172.66C496.397 1173.64 495.759 1174.44 495.095 1175.05C494.454 1175.67 493.784 1176.04 493.085 1176.15L487.443 1173.4C488.253 1173.7 489.02 1173.65 489.743 1173.23C490.489 1172.83 491.203 1172.14 491.884 1171.18C492.572 1170.2 493.231 1169.01 493.862 1167.6C494.515 1166.2 495.164 1164.66 495.811 1162.98L498.619 1155.6L516.958 1161.83L509.69 1183.24L504.236 1181.39ZM483.453 1182.58L486.693 1173.15L513.725 1182.33L510.519 1191.77L505.406 1190.03L507.084 1185.09L490.244 1179.37L488.566 1184.31L483.453 1182.58ZM527.196 1192.37C525.309 1191.73 523.664 1190.83 522.258 1189.67C520.876 1188.52 519.783 1187.18 518.979 1185.67C518.198 1184.16 517.733 1182.55 517.583 1180.82C517.456 1179.11 517.694 1177.36 518.295 1175.59C518.897 1173.82 519.771 1172.29 520.917 1171C522.085 1169.73 523.449 1168.73 525.009 1168.02C526.569 1167.31 528.248 1166.92 530.047 1166.84C531.846 1166.77 533.678 1167.05 535.541 1167.68C537.427 1168.32 539.05 1169.22 540.41 1170.36C541.793 1171.52 542.874 1172.85 543.655 1174.35C544.459 1175.87 544.936 1177.49 545.085 1179.21C545.243 1180.91 545.017 1182.66 544.407 1184.46C543.805 1186.23 542.917 1187.76 541.74 1189.06C540.572 1190.34 539.208 1191.33 537.648 1192.05C536.119 1192.74 534.455 1193.13 532.655 1193.2C530.879 1193.28 529.059 1193.01 527.196 1192.37ZM528.759 1187.66C529.827 1188.02 530.866 1188.17 531.876 1188.11C532.908 1188.05 533.881 1187.8 534.794 1187.35C535.707 1186.9 536.504 1186.27 537.184 1185.46C537.887 1184.66 538.431 1183.69 538.817 1182.56C539.203 1181.42 539.361 1180.32 539.291 1179.26C539.243 1178.2 538.995 1177.22 538.544 1176.31C538.117 1175.4 537.51 1174.61 536.725 1173.94C535.939 1173.27 535.012 1172.75 533.944 1172.39C532.876 1172.02 531.826 1171.87 530.793 1171.93C529.783 1171.99 528.822 1172.24 527.909 1172.69C526.995 1173.14 526.187 1173.77 525.485 1174.57C524.805 1175.38 524.272 1176.35 523.886 1177.49C523.508 1178.6 523.339 1179.7 523.378 1180.78C523.448 1181.84 523.697 1182.82 524.124 1183.73C524.575 1184.64 525.193 1185.43 525.978 1186.11C526.764 1186.78 527.691 1187.3 528.759 1187.66ZM555.755 1202.07C553.914 1201.45 552.299 1200.57 550.909 1199.44C549.549 1198.29 548.478 1196.96 547.698 1195.46C546.917 1193.95 546.451 1192.33 546.301 1190.61C546.174 1188.9 546.416 1187.14 547.025 1185.34C547.635 1183.55 548.512 1182.01 549.658 1180.73C550.826 1179.45 552.179 1178.45 553.716 1177.73C555.276 1177.02 556.94 1176.63 558.709 1176.58C560.485 1176.49 562.305 1176.77 564.169 1177.4C566.237 1178.1 567.977 1179.1 569.389 1180.39C570.831 1181.67 571.886 1183.19 572.551 1184.96L567.895 1187.03C567.393 1185.82 566.719 1184.82 565.874 1184.03C565.036 1183.21 564.026 1182.6 562.844 1182.2C561.731 1181.82 560.646 1181.66 559.591 1181.7C558.536 1181.75 557.552 1182 556.638 1182.45C555.725 1182.9 554.917 1183.53 554.214 1184.33C553.534 1185.13 553.002 1186.11 552.616 1187.24C552.23 1188.38 552.061 1189.47 552.108 1190.53C552.178 1191.59 552.438 1192.58 552.888 1193.49C553.339 1194.41 553.968 1195.2 554.776 1195.88C555.585 1196.56 556.545 1197.09 557.659 1197.47C558.841 1197.87 560.009 1198.02 561.163 1197.9C562.325 1197.76 563.477 1197.36 564.619 1196.68L567.053 1201.15C565.446 1202.16 563.679 1202.73 561.75 1202.89C559.844 1203.05 557.846 1202.78 555.755 1202.07ZM574.259 1207.9L581.262 1187.27L582.095 1188.96L573.232 1185.95L574.759 1181.45L595.451 1188.48L593.923 1192.98L585.06 1189.97L586.716 1189.13L579.713 1209.75L574.259 1207.9ZM592.131 1208.95C593.318 1209.78 594.381 1210.27 595.321 1210.41C596.292 1210.54 597.315 1210.18 598.39 1209.32L600.139 1207.98L600.847 1207.57L614.011 1194.78L619.431 1196.62L602.86 1212.06C601.372 1213.45 599.849 1214.39 598.291 1214.88C596.755 1215.37 595.229 1215.42 593.713 1215.04C592.19 1214.67 590.745 1213.89 589.377 1212.69L592.131 1208.95ZM599.182 1212.14L595.228 1188.4L601.125 1190.41L603.594 1209.11L599.182 1212.14ZM613.953 1221.37L622.055 1197.51L643.804 1204.9L635.702 1228.76L630.213 1226.9L637.216 1206.27L638.049 1207.96L624.754 1203.45L626.444 1202.61L619.441 1223.24L613.953 1221.37ZM666.081 1212.46L671.604 1214.34L663.502 1238.2L657.979 1236.32L666.081 1212.46ZM647.139 1232.64L641.617 1230.77L649.719 1206.91L655.241 1208.78L647.139 1232.64ZM661.71 1226.68L650.052 1222.72L651.638 1218.05L663.296 1222.01L661.71 1226.68ZM680.761 1244.51C678.875 1243.87 677.229 1242.97 675.824 1241.81C674.441 1240.66 673.348 1239.32 672.545 1237.81C671.764 1236.3 671.298 1234.69 671.149 1232.96C671.022 1231.25 671.259 1229.5 671.861 1227.73C672.463 1225.96 673.336 1224.43 674.482 1223.15C675.65 1221.87 677.014 1220.88 678.574 1220.16C680.134 1219.45 681.814 1219.06 683.613 1218.98C685.412 1218.91 687.243 1219.19 689.107 1219.82C690.993 1220.46 692.616 1221.36 693.976 1222.5C695.358 1223.66 696.44 1224.99 697.221 1226.49C698.024 1228.01 698.501 1229.63 698.651 1231.35C698.808 1233.05 698.582 1234.8 697.973 1236.6C697.371 1238.37 696.482 1239.9 695.306 1241.2C694.138 1242.48 692.774 1243.47 691.214 1244.19C689.684 1244.88 688.02 1245.27 686.221 1245.34C684.445 1245.42 682.625 1245.15 680.761 1244.51ZM682.324 1239.8C683.392 1240.16 684.431 1240.31 685.441 1240.25C686.474 1240.19 687.446 1239.94 688.36 1239.49C689.273 1239.04 690.07 1238.41 690.749 1237.6C691.452 1236.8 691.996 1235.83 692.382 1234.7C692.768 1233.56 692.926 1232.46 692.856 1231.4C692.809 1230.34 692.56 1229.36 692.11 1228.45C691.682 1227.54 691.076 1226.75 690.29 1226.08C689.504 1225.41 688.578 1224.89 687.509 1224.53C686.441 1224.16 685.391 1224.01 684.359 1224.07C683.349 1224.13 682.387 1224.38 681.474 1224.84C680.561 1225.29 679.753 1225.91 679.05 1226.71C678.37 1227.52 677.837 1228.49 677.451 1229.63C677.073 1230.74 676.904 1231.84 676.944 1232.92C677.014 1233.98 677.262 1234.96 677.69 1235.87C678.14 1236.78 678.758 1237.57 679.544 1238.25C680.329 1238.92 681.256 1239.44 682.324 1239.8ZM709.172 1245.38L710.618 1241.12L720.266 1244.39L718.819 1248.65L709.172 1245.38Z" fill="white"/>
<path d="M392.476 1146.18L400.578 1122.31L411.691 1126.09C414.464 1127.03 416.442 1128.3 417.624 1129.89C418.807 1131.48 419.063 1133.27 418.391 1135.24C417.728 1137.2 416.483 1138.47 414.659 1139.07C412.842 1139.65 410.729 1139.52 408.32 1138.71L409.453 1137.49C412.135 1138.4 414.033 1139.64 415.148 1141.21C416.262 1142.78 416.476 1144.58 415.789 1146.6C415.079 1148.69 413.725 1150.07 411.725 1150.73C409.756 1151.38 407.26 1151.2 404.237 1150.17L392.476 1146.18ZM399.354 1143.95L405.421 1146.01C406.694 1146.44 407.745 1146.52 408.574 1146.24C409.402 1145.97 409.994 1145.31 410.349 1144.26C410.689 1143.26 410.61 1142.41 410.113 1141.71C409.624 1140.99 408.743 1140.41 407.47 1139.98L401.402 1137.92L399.354 1143.95ZM402.71 1134.06L407.858 1135.81C409.062 1136.22 410.052 1136.29 410.828 1136.02C411.611 1135.73 412.165 1135.11 412.489 1134.15C412.813 1133.2 412.749 1132.38 412.298 1131.69C411.854 1130.98 411.03 1130.43 409.825 1130.02L404.678 1128.27L402.71 1134.06ZM415.184 1153.89L433.921 1133.64L439.375 1135.49L441.943 1162.97L436.148 1161L434.574 1136.97L436.756 1137.72L420.842 1155.81L415.184 1153.89ZM422.238 1150.58L425.127 1146.88L437.399 1151.05L437.475 1155.75L422.238 1150.58ZM445.108 1164.05L453.209 1140.18L457.777 1141.74L462.218 1162.02L459.798 1161.2L475.503 1147.75L480.071 1149.3L472.003 1173.18L466.822 1171.42L472.193 1155.49L473.182 1155.82L460.622 1166.5L458.168 1165.67L454.535 1149.49L455.694 1149.89L450.289 1165.81L445.108 1164.05Z" fill="#3BE0D8"/>
</g>
<defs>
<clipPath id="clip0_98_52">
<rect width="1307" height="1453" fill="white"/>
</clipPath>
</defs>
</svg>
