<svg width="50" height="50" viewBox="0 0 50 50" fill="none" xmlns="http://www.w3.org/2000/svg">
<path d="M6.25 15.625C6.25 15.2106 6.41462 14.8132 6.70765 14.5201C7.00067 14.2271 7.3981 14.0625 7.8125 14.0625H42.1875C42.6019 14.0625 42.9993 14.2271 43.2924 14.5201C43.5854 14.8132 43.75 15.2106 43.75 15.625C43.75 16.0394 43.5854 16.4368 43.2924 16.7299C42.9993 17.0229 42.6019 17.1875 42.1875 17.1875H7.8125C7.3981 17.1875 7.00067 17.0229 6.70765 16.7299C6.41462 16.4368 6.25 16.0394 6.25 15.625Z" fill="white"/>
<path fill-rule="evenodd" clip-rule="evenodd" d="M25 32.8126C25.0003 31.5945 25.2854 30.3933 25.8326 29.305C26.3798 28.2167 27.1739 27.2715 28.1514 26.5447C29.129 25.818 30.2629 25.3299 31.4627 25.1194C32.6625 24.909 33.8949 24.982 35.0614 25.3326C36.228 25.6833 37.2964 26.3019 38.1813 27.139C39.0662 27.976 39.7431 29.0085 40.158 30.1537C40.5728 31.299 40.7141 32.5255 40.5706 33.7351C40.427 34.9447 40.0026 36.104 39.3313 37.1204L43.2922 41.0829C43.5768 41.3776 43.7343 41.7723 43.7307 42.1819C43.7272 42.5916 43.5629 42.9835 43.2732 43.2732C42.9835 43.5629 42.5916 43.7273 42.1819 43.7308C41.7722 43.7344 41.3775 43.5769 41.0828 43.2923L37.1203 39.3313C35.9427 40.1096 34.5763 40.5544 33.1662 40.6183C31.7561 40.6822 30.3551 40.3629 29.1119 39.6943C27.8688 39.0257 26.83 38.0328 26.106 36.821C25.382 35.6093 24.9998 34.2241 25 32.8126ZM32.8125 28.1251C31.5693 28.1251 30.377 28.6189 29.4979 29.498C28.6189 30.3771 28.125 31.5694 28.125 32.8126C28.125 34.0558 28.6189 35.2481 29.4979 36.1271C30.377 37.0062 31.5693 37.5001 32.8125 37.5001C34.0557 37.5001 35.248 37.0062 36.1271 36.1271C37.0061 35.2481 37.5 34.0558 37.5 32.8126C37.5 31.5694 37.0061 30.3771 36.1271 29.498C35.248 28.6189 34.0557 28.1251 32.8125 28.1251Z" fill="white"/>
<path d="M6.25 34.375C6.25 33.9606 6.41462 33.5632 6.70765 33.2701C7.00067 32.9771 7.3981 32.8125 7.8125 32.8125H15.625C16.0394 32.8125 16.4368 32.9771 16.7299 33.2701C17.0229 33.5632 17.1875 33.9606 17.1875 34.375C17.1875 34.7894 17.0229 35.1868 16.7299 35.4799C16.4368 35.7729 16.0394 35.9375 15.625 35.9375H7.8125C7.3981 35.9375 7.00067 35.7729 6.70765 35.4799C6.41462 35.1868 6.25 34.7894 6.25 34.375ZM7.8125 23.4375C7.3981 23.4375 7.00067 23.6021 6.70765 23.8951C6.41462 24.1882 6.25 24.5856 6.25 25C6.25 25.4144 6.41462 25.8118 6.70765 26.1049C7.00067 26.3979 7.3981 26.5625 7.8125 26.5625H20.3125C20.7269 26.5625 21.1243 26.3979 21.4174 26.1049C21.7104 25.8118 21.875 25.4144 21.875 25C21.875 24.5856 21.7104 24.1882 21.4174 23.8951C21.1243 23.6021 20.7269 23.4375 20.3125 23.4375H7.8125Z" fill="white"/>
</svg>
