<svg width="30" height="30" viewBox="0 0 30 30" fill="none" xmlns="http://www.w3.org/2000/svg">
<path fill-rule="evenodd" clip-rule="evenodd" d="M12.7663 0C5.71627 0 0 5.71502 0 12.7663C0 19.8163 5.71502 25.5326 12.7663 25.5326C15.7117 25.5371 18.5672 24.5186 20.8451 22.6513L27.8201 29.6264C28.0595 29.8659 28.3842 30.0005 28.7228 30.0006C29.0614 30.0007 29.3862 29.8663 29.6257 29.627C29.8653 29.3876 29.9999 29.0629 30 28.7243C30.0001 28.3857 29.8657 28.0609 29.6264 27.8213L22.6513 20.8463C24.5189 18.5682 25.5374 15.7121 25.5326 12.7663C25.5313 5.71627 19.8151 0 12.7663 0ZM2.55376 12.7663C2.55376 10.0578 3.62972 7.46016 5.54494 5.54494C7.46016 3.62972 10.0578 2.55376 12.7663 2.55376C15.4748 2.55376 18.0724 3.62972 19.9876 5.54494C21.9029 7.46016 22.9788 10.0578 22.9788 12.7663C22.9788 15.4748 21.9029 18.0724 19.9876 19.9876C18.0724 21.9029 15.4748 22.9788 12.7663 22.9788C10.0578 22.9788 7.46016 21.9029 5.54494 19.9876C3.62972 18.0724 2.55376 15.4748 2.55376 12.7663Z" fill="#E0733A"/>
</svg>
