<svg width="1182" height="1027" viewBox="0 0 1182 1027" fill="none" xmlns="http://www.w3.org/2000/svg">
<path d="M284.169 247.069C291.669 241.069 332.169 202.069 347.169 140.569C361.327 82.523 338.395 -12.8932 398.124 -14.345C569.514 -18.5111 732.168 -15.9388 736.669 6.56875C745.564 51.0435 763.739 63.2841 904.626 158.172L909.669 161.569C1055.17 259.569 934.5 316 1069.5 289C1204.5 262 1074.5 455.5 1139 546C1203.5 636.5 1178 573.5 1170.5 710C1163 846.5 822.669 1032 736.669 1026C650.669 1020 839 763 577.5 818.5C316 874 720.5 1017 477 982.5C233.5 948 13.4996 902.5 28.5 662C42.7312 433.833 -27.0004 522 13.4996 329.5C53.9996 137 75.1691 282.069 94.6692 273.069C114.169 264.069 125 203.5 188 197C251 190.5 276.669 253.069 284.169 247.069Z" fill="#52A19D" fill-opacity="0.5"/>
<path d="M439.27 228.84C442.211 217.148 478.437 181.36 520.875 139.555C555.134 105.808 694.032 93.5363 703.748 140.633C709.788 169.909 722.129 177.966 817.795 240.427L821.219 242.663C920.017 307.173 838.08 344.319 929.747 326.546C1021.42 308.773 933.142 436.146 976.939 495.719C1020.74 555.291 1003.42 513.821 998.328 603.673C993.236 693.526 762.144 815.633 703.748 811.683C645.353 807.734 773.233 638.561 595.669 675.094C418.105 711.628 692.769 805.759 527.427 783.049C362.086 760.339 212.701 730.388 222.887 572.077C232.55 421.884 185.201 479.92 212.701 353.205C240.201 226.49 254.576 321.983 267.817 316.059C281.058 310.135 288.412 270.265 331.19 265.986C373.969 261.707 391.399 302.894 396.491 298.944C401.584 294.995 429.084 269.323 439.27 228.84Z" fill="#4A6160" fill-opacity="0.8"/>
</svg>
