<svg width="1307" height="808" viewBox="0 0 1307 808" fill="none" xmlns="http://www.w3.org/2000/svg">
<g clip-path="url(#clip0_94_6)">
<rect width="1307" height="808" fill="#52A19D" fill-opacity="0.5"/>
<path d="M-1 0H1307V808H-1V0Z" fill="#52A19D" fill-opacity="0.5"/>
<path d="M258.29 525.116C218.669 559.091 169.519 670.509 63.1955 671.508L-1 683V4H980.489C1014.43 71.4503 1071.57 244.023 1028.64 394.712C974.972 583.074 852.098 540.105 744.771 491.141C637.444 442.177 672.551 394.712 566.227 377.225C459.903 359.738 297.91 491.141 258.29 525.116Z" fill="#4A6160"/>
<path d="M-1 4H1307V57C1307 62.5228 1302.52 67 1297 67H8.99999C3.47714 67 -1 62.5228 -1 57V4Z" fill="#52A19D" fill-opacity="0.5"/>
<path d="M619.5 627C567.5 602 374.5 702.5 276.5 808.5H1306.5V254.5C1271.67 311.667 1190.5 443.5 1144.5 513.5C1087 601 1015 634.5 888.5 645.5C762 656.5 671.5 652 619.5 627Z" fill="#52A19D" fill-opacity="0.5"/>
<path d="M98.5318 673.241C-68.9257 667.948 64.8228 667.418 44.1625 576.904C42.5314 562.083 37.9644 526.935 32.745 504.915C26.2207 477.39 33.2887 483.742 32.745 439.808C32.2013 395.874 39.813 416.518 53.4053 392.698C66.9977 368.879 64.2792 379.995 98.5318 352.999C132.784 326.003 167.581 353.528 203.465 349.823C239.348 346.118 287.194 357.234 313.291 363.056C339.388 368.879 340.475 428.693 333.407 450.924C326.339 473.156 358.961 453.571 416.593 517.619C474.224 581.668 403.544 582.197 345.369 643.069C287.194 703.942 265.989 678.534 98.5318 673.241Z" fill="#D9D9D9" fill-opacity="0.3"/>
<path d="M198.538 304.832C212.33 345.832 124.982 380.332 86.3646 408.332L119.005 342.832L136.015 324.332C136.322 319.666 139.969 310.332 152.106 310.332C167.276 310.332 159.921 276.832 171.874 258.332C183.827 239.832 184.746 263.832 198.538 304.832Z" fill="#D9D9D9"/>
<path d="M-680 666.832C-639.544 744.332 -691.953 739.332 -560.931 740.332C-429.909 741.332 -379.798 712.832 -247.397 717.332C-114.996 721.832 -76.3787 841.832 -2.82241 707.832C70.7339 573.832 90.5021 670.332 86.3646 564.332C82.2271 458.332 47.7475 436.332 86.3646 408.332M86.3646 408.332C124.982 380.332 212.33 345.832 198.538 304.832C184.746 263.832 183.827 239.832 171.874 258.332C159.921 276.832 167.277 310.332 152.106 310.332C139.969 310.332 136.322 319.666 136.015 324.332L119.005 342.832L86.3646 408.332Z" stroke="white" stroke-opacity="0.5" stroke-width="3"/>
<path d="M77.6299 415C79.0091 413 116.247 377 133.717 354.5C151.186 332 166.357 319.5 169.116 306.5C171.322 296.1 170.035 269.833 169.116 258" stroke="black"/>
<path d="M273.461 385.883C275.107 429.109 181.571 437.526 136.616 453.475L186.432 399.865L207.976 386.925C209.588 382.535 215.724 374.612 227.366 378.041C241.919 382.327 244.327 348.113 261.02 333.744C277.712 319.375 271.814 342.657 273.461 385.883Z" fill="#D9D9D9"/>
<path d="M-671.559 484.933C-654.646 570.705 -703.507 551.102 -578.105 589.078C-452.703 627.053 -396.583 613.871 -270.847 655.594C-145.11 697.316 -141.969 823.338 -33.5514 715.577C74.8657 607.817 66.5657 705.971 92.5436 603.12C118.522 500.27 91.662 469.425 136.616 453.475M136.616 453.475C181.571 437.526 275.107 429.109 273.461 385.883C271.814 342.657 277.712 319.375 261.02 333.744C244.327 348.113 241.919 382.327 227.366 378.041C215.724 374.612 209.588 382.535 207.976 386.925L186.432 399.865L136.616 453.475Z" stroke="white" stroke-opacity="0.5" stroke-width="3"/>
<path d="M126.354 457.404C128.242 455.875 174.133 431.862 197.248 415.214C220.362 398.566 238.447 390.861 244.766 379.17C249.821 369.817 256.007 344.257 258.468 332.646" stroke="black"/>
<path d="M131.217 104.057C90.8538 104.252 60.5949 103.265 58.3243 137C54.8243 189 73.8243 152.5 43.3243 229C20.0885 287.28 7.00946 324.376 2.98168 343.604L2.4277 361.024C3.11943 368.646 2.3794 376.53 1.82427 380L2.4277 361.024C2.28872 359.493 2.09195 357.972 1.82427 356.5C1.34792 353.88 1.72247 349.615 2.98168 343.604L10.5612 105.26C10.7136 100.466 14.223 96.5443 19.0122 96.2847C39.2935 95.1854 86.0366 95.3287 130.697 95.8468C142.308 95.9815 142.829 104 131.217 104.057Z" fill="#52A19D" fill-opacity="0.5"/>
<path d="M10.2437 560.649C10.2396 601.013 9.10258 631.266 42.826 633.704C94.808 637.461 58.4024 618.281 134.751 649.159C192.915 672.682 229.945 685.945 249.153 690.068L266.571 690.708C274.196 690.054 282.077 690.833 285.543 691.405L266.571 690.708C265.039 690.839 263.517 691.029 262.044 691.289C259.422 691.752 255.158 691.357 249.153 690.068L10.8498 681.309C6.0567 681.133 2.1525 677.604 1.91661 672.814C0.917683 652.527 1.29217 605.786 2.03123 561.129C2.22339 549.518 10.2448 549.037 10.2437 560.649Z" fill="#52A19D" fill-opacity="0.5"/>
</g>
<defs>
<clipPath id="clip0_94_6">
<rect width="1307" height="808" fill="white"/>
</clipPath>
</defs>
</svg>
