<svg width="1920" height="1080" viewBox="0 0 1920 1080" fill="none" xmlns="http://www.w3.org/2000/svg">
<g clip-path="url(#clip0_176_24)">
<rect width="1920" height="1080" fill="#4A6160"/>
<path d="M202.5 895.881C128.923 822.303 43.0466 842.284 4.75304 863.582C1.73852 865.259 0 868.477 0 871.926V1075.14C0 1080.8 4.55561 1085.34 10.2145 1085.15C290.335 1076.04 770.336 1092.8 838.5 1076.38C861.326 1070.88 706 1044.5 655.5 1044.5C605 1044.5 298.5 991.881 202.5 895.881Z" fill="#52A19D" fill-opacity="0.5"/>
<path d="M102.5 974.5C85.7 929.7 27.1667 942.167 0 954V1080.5H298C298.5 1077.33 296.6 1064.9 285 1040.5C270.5 1010 208 1038 198 1040.5C188 1043 123.5 1030.5 102.5 974.5Z" fill="#E0733A" fill-opacity="0.7"/>
</g>
<defs>
<clipPath id="clip0_176_24">
<rect width="1920" height="1080" fill="white"/>
</clipPath>
</defs>
</svg>
