<svg width="322" height="420" viewBox="0 0 322 420" fill="none" xmlns="http://www.w3.org/2000/svg">
<path d="M35.1944 350.5C43.0564 342.167 65 310.5 65 261.5L181 315C152.947 341.667 92.4445 397.3 74.8621 406.5C57.2796 415.7 41.0909 419.333 35.1944 420H10V350.5H35.1944Z" fill="#4A6160"/>
<path d="M140.642 30.7026C115.842 35.9026 92.9755 49.8693 84.6422 56.2026C72.6422 43.7026 130.142 20.2026 136.142 7.20262C142.142 -5.79737 167.142 1.70262 220.642 7.20262C274.142 12.7026 244.142 20.2026 292.642 43.7026C331.442 62.5026 322.476 78.536 313.142 84.2026C299.142 72.8693 269.742 50.2026 264.142 50.2026C257.142 50.2026 244.142 56.2026 225.642 50.2026C207.142 44.2026 212.142 35.7026 206.142 20.2026C200.142 4.70261 171.642 24.2026 140.642 30.7026Z" fill="#E0733A"/>
<path d="M177.284 299.828C202.036 305.253 228.619 301.889 238.816 299.529C244.636 315.85 182.556 313.71 171.754 323.107C160.951 332.504 141.224 315.414 94.682 288.463C48.14 261.513 78.5777 266.972 43.9758 225.653C16.2943 192.598 31.0462 181.651 41.8823 180.309C50.0051 196.386 67.5276 229.113 72.6353 231.409C79.02 234.279 93.3371 234.136 107.751 247.193C122.165 260.251 114.119 265.954 113.237 282.551C112.355 299.148 146.344 293.047 177.284 299.828Z" fill="#4A6160"/>
</svg>
